<svg width="151" height="151" viewBox="0 0 151 151" fill="none" xmlns="http://www.w3.org/2000/svg">
<path d="M63.2939 56.8418C63.2939 55.1842 63.9524 53.5945 65.1245 52.4224C66.2966 51.2503 67.8863 50.5918 69.5439 50.5918C71.2015 50.5918 72.7913 51.2503 73.9634 52.4224C75.1355 53.5945 75.7939 55.1842 75.7939 56.8418V84.7793L83.3564 85.5918L114.231 99.2793C117.544 100.779 119.544 104.092 119.544 107.717V134.967C119.356 140.092 115.294 144.154 110.169 144.342H69.5439C67.1689 144.342 64.9189 143.404 63.2939 141.654L32.6689 115.404L37.2939 110.592C38.4814 109.279 40.1689 108.592 41.9189 108.592H43.2939L63.2939 119.342V56.8418ZM69.5439 31.8418C76.1744 31.8418 82.5332 34.4757 87.2216 39.1641C91.91 43.8525 94.5439 50.2114 94.5439 56.8418C94.5439 66.2168 89.5439 74.1543 82.0439 78.4668V70.8418C85.8564 67.4043 88.2939 62.4043 88.2939 56.8418C88.2939 51.869 86.3185 47.0999 82.8022 43.5835C79.2859 40.0672 74.5168 38.0918 69.5439 38.0918C64.5711 38.0918 59.802 40.0672 56.2857 43.5835C52.7694 47.0999 50.7939 51.869 50.7939 56.8418C50.7939 62.4043 53.2314 67.4043 57.0439 70.8418V78.4668C49.5439 74.1543 44.5439 66.2168 44.5439 56.8418C44.5439 50.2114 47.1779 43.8525 51.8663 39.1641C56.5547 34.4757 62.9135 31.8418 69.5439 31.8418ZM69.5439 19.3418C79.4896 19.3418 89.0278 23.2927 96.0604 30.3253C103.093 37.3579 107.044 46.8962 107.044 56.8418C107.044 67.4668 102.606 77.0293 95.5439 83.9043L89.2939 81.0918C96.2939 75.3418 100.794 66.5918 100.794 56.8418C100.794 48.5538 97.5015 40.6052 91.641 34.7447C85.7805 28.8842 77.832 25.5918 69.5439 25.5918C61.2559 25.5918 53.3074 28.8842 47.4469 34.7447C41.5863 40.6052 38.2939 48.5538 38.2939 56.8418C38.2939 69.6543 45.9814 80.6543 57.0439 85.4668V92.2168C42.4814 87.0293 32.0439 73.1543 32.0439 56.8418C32.0439 46.8962 35.9948 37.3579 43.0274 30.3253C50.0601 23.2927 59.5983 19.3418 69.5439 19.3418Z" fill="black"/>
</svg>
