<svg width="50" height="50" viewBox="0 0 50 50" fill="none" xmlns="http://www.w3.org/2000/svg">
<path d="M6.24992 35.9375V43.75H14.0624L37.1041 20.6875L29.2916 12.875L6.24992 35.9375ZM47.1041 38.25L38.2499 47.1042L27.4166 36.2709L31.1041 32.5834L33.1874 34.6667L38.3333 29.5L41.2916 32.4584L38.2499 35.4167L40.4583 37.5L43.4166 34.5834L47.1041 38.25ZM13.7708 22.5625L2.89575 11.75L11.7499 2.89587L15.4166 6.58337L10.2708 11.75L12.4999 13.9584L17.6249 8.79171L20.5833 11.75L17.6249 14.6875L19.7083 16.7709L13.7708 22.5625ZM43.1457 14.5834C43.9582 13.7709 43.9582 12.5 43.1457 11.6459L38.2708 6.85421C37.4999 6.04171 36.1457 6.04171 35.3332 6.85421L31.4999 10.6667L39.3124 18.4792L43.1457 14.5834Z" fill="black"/>
</svg>
