<svg width="50" height="50" viewBox="0 0 50 50" fill="none" xmlns="http://www.w3.org/2000/svg">
<path d="M21.8749 8.33331C18.4568 8.32318 15.1614 9.60603 12.6498 11.9245C10.1381 14.2429 8.59617 17.4253 8.33325 20.8333H2.08325L10.4166 29.1666L18.7499 20.8333H12.5624C12.8186 18.5423 13.9098 16.426 15.6277 14.8887C17.3456 13.3515 19.5696 12.5011 21.8749 12.5C24.3613 12.5 26.7459 13.4877 28.504 15.2459C30.2622 17.004 31.2499 19.3886 31.2499 21.875C31.2499 24.3614 30.2622 26.7459 28.504 28.5041C26.7459 30.2623 24.3613 31.25 21.8749 31.25H4.16659V35.4166H21.8749C25.4664 35.4166 28.9108 33.9899 31.4503 31.4504C33.9899 28.9108 35.4166 25.4665 35.4166 21.875C35.4166 18.2835 33.9899 14.8391 31.4503 12.2996C28.9108 9.76002 25.4664 8.33331 21.8749 8.33331ZM39.5833 25V31.25H34.3749C33.104 32.9435 31.5021 34.3611 29.6666 35.4166H39.5833V41.6666L47.9166 33.3333L39.5833 25Z" fill="black"/>
</svg>
