<svg width="50" height="51" viewBox="0 0 50 51" fill="none" xmlns="http://www.w3.org/2000/svg">
<path d="M24.9998 4.30139C22.264 4.30139 19.5549 4.84026 17.0273 5.88723C14.4996 6.93421 12.203 8.46878 10.2684 10.4033C6.36144 14.3103 4.1665 19.6094 4.1665 25.1347C4.1665 30.6601 6.36144 35.9591 10.2684 39.8661C12.203 41.8007 14.4996 43.3352 17.0273 44.3822C19.5549 45.4292 22.264 45.9681 24.9998 45.9681C30.5252 45.9681 35.8242 43.7731 39.7312 39.8661C43.6382 35.9591 45.8332 30.6601 45.8332 25.1347C45.8332 22.3989 45.2943 19.6898 44.2473 17.1622C43.2004 14.6345 41.6658 12.3379 39.7312 10.4033C37.7967 8.46878 35.5 6.93421 32.9724 5.88723C30.4448 4.84026 27.7357 4.30139 24.9998 4.30139ZM14.5832 19.9264C14.5832 18.2597 16.0415 16.8014 17.7082 16.8014C19.3748 16.8014 20.8332 18.2597 20.8332 19.9264C20.8332 21.5931 19.3748 23.0514 17.7082 23.0514C16.0415 23.0514 14.5832 21.5931 14.5832 19.9264ZM24.9998 36.0306C21.354 36.0306 18.1457 34.5097 16.2707 32.2597L19.229 29.3014C20.1665 30.8014 22.3957 31.8639 24.9998 31.8639C27.604 31.8639 29.8332 30.8014 30.7707 29.3014L33.729 32.2597C31.854 34.5097 28.6457 36.0306 24.9998 36.0306ZM32.2915 23.0514C30.6248 23.0514 29.1665 21.5931 29.1665 19.9264C29.1665 18.2597 30.6248 16.8014 32.2915 16.8014C33.9582 16.8014 35.4165 18.2597 35.4165 19.9264C35.4165 21.5931 33.9582 23.0514 32.2915 23.0514Z" fill="black"/>
</svg>
