<svg width="50" height="51" viewBox="0 0 50 51" fill="none" xmlns="http://www.w3.org/2000/svg">
<path d="M49.1609 31.1277L42.988 41.9853C41.7781 44.1418 39.5312 45.2702 37.2595 45.1197H32.3212V50.1348L26.1483 38.8509L32.3212 27.5671V32.5821H39.2842L33.8027 22.9281L44.4942 16.6593L48.9386 24.4828C50.2226 26.4136 50.3954 28.9964 49.1609 31.1277ZM18.0248 0.134766H30.3706C32.7904 0.134766 34.8892 1.56405 35.9015 3.62022L38.3707 7.98331L42.6423 5.47579L36.1237 16.534L23.4076 16.7596L27.6792 14.2521L24.1977 8.10869L18.7409 17.7626L8.02475 11.4938L12.4692 3.67037C13.4816 1.58913 15.5804 0.134766 18.0248 0.134766ZM7.75315 42.0104L1.58026 31.1528C0.370373 29.0214 0.543214 26.4638 1.80248 24.533L4.27164 20.1949L0 17.6874L12.6915 17.888L19.2347 28.9713L14.9631 26.4638L11.4816 32.5821H22.4446V45.1197H13.5557C11.2593 45.2952 8.98772 44.1418 7.75315 42.0104Z" fill="black"/>
</svg>
