<svg width="50" height="51" viewBox="0 0 50 51" fill="none" xmlns="http://www.w3.org/2000/svg">
<path d="M22.9167 16.4472C20.4792 15.5931 18.75 13.2597 18.75 10.5514C18.75 8.89379 19.4085 7.30408 20.5806 6.13197C21.7527 4.95987 23.3424 4.30139 25 4.30139C26.6576 4.30139 28.2473 4.95987 29.4194 6.13197C30.5915 7.30408 31.25 8.89379 31.25 10.5514C31.25 13.2806 29.5 15.5931 27.0833 16.4472V22.3014C26.4167 22.1139 25.7292 22.0097 25 22.0097C24.2708 22.0097 23.5833 22.1139 22.9167 22.3014V16.4472ZM38.125 44.0931C35.75 42.7389 34.625 40.0931 35.0833 37.5514L30 34.6139C31 33.6556 31.75 32.4264 32.0833 31.0097L37.1667 33.9472C39.125 32.2597 42 31.9264 44.3542 33.2806C47.3542 35.0097 48.375 38.8222 46.6458 41.8014C44.9167 44.8014 41.1042 45.8222 38.125 44.0931ZM5.62501 33.2597C7.97917 31.9056 10.8542 32.2597 12.8125 33.9264L17.9167 30.9889C18.25 32.4264 18.9792 33.6347 20 34.5931L14.8958 37.5306C15.375 40.0722 14.2292 42.7389 11.875 44.0931C8.87501 45.8222 5.06251 44.8014 3.33334 41.8014C1.60417 38.8222 2.62501 34.9889 5.62501 33.2597ZM29.1667 29.3014C29.1667 30.4065 28.7277 31.4663 27.9463 32.2477C27.1649 33.0291 26.1051 33.4681 25 33.4681C22.6875 33.4681 20.8333 31.5931 20.8333 29.3014C20.8333 28.1963 21.2723 27.1365 22.0537 26.3551C22.8351 25.5737 23.8949 25.1347 25 25.1347C27.3125 25.1347 29.1667 27.0097 29.1667 29.3014ZM35.4167 29.3014L35.3542 30.4889L32.2917 28.6972C32.0833 26.4681 30.8958 24.5306 29.1667 23.3014V19.7389C32.8542 21.3639 35.4167 25.0306 35.4167 29.3014ZM31.1875 37.6972C29.4583 38.9681 27.3125 39.7181 25 39.7181C22.6875 39.7181 20.5417 38.9681 18.8125 37.6347L21.875 35.9056C22.8333 36.3431 23.8958 36.5931 25 36.5931C26.1042 36.5931 27.1458 36.3431 28.125 35.9056L31.1875 37.6972ZM14.6458 30.4681L14.5833 29.3014C14.5833 25.0306 17.1458 21.3639 20.8333 19.7597V23.3222C19.1042 24.5306 17.9167 26.4681 17.7083 28.6764L14.6458 30.4681Z" fill="black"/>
</svg>
