<svg width="89" height="46" viewBox="0 0 89 46" fill="none" xmlns="http://www.w3.org/2000/svg">
<path d="M86.6077 24.0607C87.1935 23.4749 87.1935 22.5251 86.6077 21.9393L77.0618 12.3934C76.476 11.8076 75.5263 11.8076 74.9405 12.3934C74.3547 12.9792 74.3547 13.9289 74.9405 14.5147L83.4257 23L74.9405 31.4853C74.3547 32.0711 74.3547 33.0208 74.9405 33.6066C75.5263 34.1924 76.476 34.1924 77.0618 33.6066L86.6077 24.0607ZM0.453003 24.5H3.49208V21.5H0.453003V24.5ZM9.57022 24.5H15.6484V21.5H9.57022V24.5ZM21.7265 24.5H27.8047V21.5H21.7265V24.5ZM33.8828 24.5H39.961V21.5H33.8828V24.5ZM46.0391 24.5H52.1173V21.5H46.0391V24.5ZM58.1954 24.5H64.2736V21.5H58.1954V24.5ZM70.3517 24.5H76.4298V21.5H70.3517V24.5ZM82.508 24.5H85.5471V21.5H82.508V24.5ZM87.6684 25.1213C88.84 23.9497 88.84 22.0503 87.6684 20.8787L68.5765 1.7868C67.4049 0.615223 65.5054 0.615223 64.3339 1.7868C63.1623 2.95837 63.1623 4.85786 64.3339 6.02944L81.3044 23L64.3339 39.9706C63.1623 41.1421 63.1623 43.0416 64.3339 44.2132C65.5054 45.3848 67.4049 45.3848 68.5765 44.2132L87.6684 25.1213ZM0.453003 26H3.49208V20H0.453003V26ZM9.57022 26H15.6484V20H9.57022V26ZM21.7265 26H27.8047V20H21.7265V26ZM33.8828 26H39.961V20H33.8828V26ZM46.0391 26H52.1173V20H46.0391V26ZM58.1954 26H64.2736V20H58.1954V26ZM70.3517 26H76.4298V20H70.3517V26ZM82.508 26H85.5471V20H82.508V26Z" fill="black"/>
</svg>
