<svg width="100" height="100" viewBox="0 0 100 100" fill="none" xmlns="http://www.w3.org/2000/svg">
<circle cx="50" cy="50" r="50" fill="#FFD12D"/>
<path d="M70 52.5C71.3807 52.5 72.5 51.3807 72.5 50C72.5 48.6193 71.3807 47.5 70 47.5V52.5ZM27.2322 48.2322C26.2559 49.2085 26.2559 50.7915 27.2322 51.7678L43.1421 67.6777C44.1184 68.654 45.7014 68.654 46.6777 67.6777C47.654 66.7014 47.654 65.1184 46.6777 64.1421L32.5355 50L46.6777 35.8579C47.654 34.8816 47.654 33.2986 46.6777 32.3223C45.7014 31.346 44.1184 31.346 43.1421 32.3223L27.2322 48.2322ZM70 47.5L29 47.5V52.5L70 52.5V47.5Z" fill="black"/>
</svg>
