<svg width="101" height="100" viewBox="0 0 101 100" fill="none" xmlns="http://www.w3.org/2000/svg">
<path d="M29.6196 58.3334V45.4584C26.6196 44.0834 23.828 42.4167 21.2863 40.4584V58.3334H29.6196ZM21.2863 75.0001H12.953V66.6667H4.61963V58.3334H12.953V29.1667H21.2863V35.1251C28.7863 41.6667 39.078 45.8334 50.453 45.8334C61.828 45.8334 72.1196 41.6667 79.6196 35.1251V29.1667H87.953V58.3334H96.2863V66.6667H87.953V75.0001H79.6196V66.6667H21.2863V75.0001ZM71.2863 45.4584V58.3334H79.6196V40.4584C77.078 42.4167 74.2863 44.0834 71.2863 45.4584ZM67.1196 58.3334V47.1667C64.453 48.1251 61.6613 48.8334 58.7863 49.3334V58.3334H67.1196ZM54.6196 58.3334V49.8334L50.453 50.0001L46.2863 49.8334V58.3334H54.6196ZM42.1196 58.3334V49.3334C39.2446 48.8334 36.453 48.1251 33.7863 47.1667V58.3334H42.1196Z" fill="black"/>
</svg>
