<svg width="50" height="50" viewBox="0 0 50 50" fill="none" xmlns="http://www.w3.org/2000/svg">
<path d="M30.625 4.58337H33.75C36.0417 4.58337 37.9167 6.45837 37.9167 8.75004V22.0834L30.625 4.58337ZM41.875 7.91671L44.5834 9.16671C46.6667 10 47.7084 12.5 46.875 14.5834L41.875 26.875V7.91671ZM37.5 32.2917L27.0834 7.29171C26.4584 5.62504 25 4.79171 23.3334 4.79171C22.7084 4.79171 22.2917 5.00004 21.6667 5.20837L6.25004 11.4584C4.16671 12.2917 3.12504 14.5834 4.16671 16.6667L14.5834 41.6667C15.2084 43.3334 16.6667 44.1667 18.3334 44.1667C18.9584 44.1667 19.375 44.1667 20 43.75L35.4167 37.5C37.0834 36.875 37.9167 35.4167 37.9167 33.75C37.7084 33.3334 37.7084 32.7084 37.5 32.2917ZM23.75 31.25L17.0834 26.25L17.9167 17.9167L24.5834 22.9167L23.75 31.25Z" fill="black"/>
</svg>
