<svg width="40" height="40" viewBox="0 0 40 40" fill="none" xmlns="http://www.w3.org/2000/svg">
<path d="M15 36.6666C14 36.6666 13.3334 35.9999 13.3334 34.9999V29.9999H6.66671C4.83337 29.9999 3.33337 28.4999 3.33337 26.6666V6.66659C3.33337 4.83325 4.83337 3.33325 6.66671 3.33325H33.3334C35.1667 3.33325 36.6667 4.83325 36.6667 6.66659V26.6666C36.6667 28.4999 35.1667 29.9999 33.3334 29.9999H23.1667L17 36.1666C16.6667 36.4999 16.3334 36.6666 15.8334 36.6666H15ZM16.6667 26.6666V31.8333L21.8334 26.6666H33.3334V6.66659H6.66671V26.6666H16.6667ZM27.1667 9.99992L24.8334 14.9999H28.3334V21.6666H21.6667V14.6666L23.8334 9.99992H27.1667ZM17.1667 9.99992L14.8334 14.9999H18.3334V21.6666H11.6667V14.6666L13.8334 9.99992H17.1667Z" fill="black"/>
</svg>
