<svg width="101" height="100" viewBox="0 0 101 100" fill="none" xmlns="http://www.w3.org/2000/svg">
<path d="M29.6197 70.8333L42.953 42.4999L71.2864 29.1666L57.953 57.4999L29.6197 70.8333ZM50.453 46.2499C49.4585 46.2499 48.5047 46.645 47.8014 47.3483C47.0981 48.0515 46.703 49.0054 46.703 49.9999C46.703 50.9945 47.0981 51.9483 47.8014 52.6516C48.5047 53.3548 49.4585 53.7499 50.453 53.7499C51.4476 53.7499 52.4014 53.3548 53.1047 52.6516C53.808 51.9483 54.203 50.9945 54.203 49.9999C54.203 49.0054 53.808 48.0515 53.1047 47.3483C52.4014 46.645 51.4476 46.2499 50.453 46.2499ZM50.453 8.33325C55.9248 8.33325 61.343 9.41099 66.3982 11.5049C71.4534 13.5989 76.0467 16.668 79.9158 20.5371C83.7849 24.4062 86.8541 28.9995 88.948 34.0548C91.042 39.11 92.1197 44.5282 92.1197 49.9999C92.1197 61.0506 87.7299 71.6487 79.9158 79.4627C72.1018 87.2767 61.5037 91.6666 50.453 91.6666C44.9813 91.6666 39.5631 90.5889 34.5079 88.4949C29.4527 86.401 24.8594 83.3318 20.9903 79.4627C13.1762 71.6487 8.78638 61.0506 8.78638 49.9999C8.78638 38.9492 13.1762 28.3512 20.9903 20.5371C28.8043 12.7231 39.4024 8.33325 50.453 8.33325ZM50.453 16.6666C41.6125 16.6666 33.134 20.1785 26.8828 26.4297C20.6316 32.6809 17.1197 41.1594 17.1197 49.9999C17.1197 58.8405 20.6316 67.3189 26.8828 73.5702C33.134 79.8214 41.6125 83.3333 50.453 83.3333C59.2936 83.3333 67.7721 79.8214 74.0233 73.5702C80.2745 67.3189 83.7864 58.8405 83.7864 49.9999C83.7864 41.1594 80.2745 32.6809 74.0233 26.4297C67.7721 20.1785 59.2936 16.6666 50.453 16.6666Z" fill="black"/>
</svg>
