<svg xmlns="http://www.w3.org/2000/svg" width="49" height="49" viewBox="0 0 49 49" fill="none">
  <path d="M6.57415 14.7408C10.0246 8.39124 16.7621 4.08333 24.5 4.08333C32.2379 4.08333 38.9754 8.39124 42.4258 14.7408L40.8333 16.3333H8.16665L6.57415 14.7408ZM43.6916 17.5583C44.4675 19.7429 44.9166 22.0704 44.9166 24.5C44.9166 29.9148 42.7656 35.1079 38.9367 38.9368C35.1079 42.7656 29.9148 44.9167 24.5 44.9167C21.8188 44.9167 19.1639 44.3886 16.6869 43.3625C14.2098 42.3365 11.9591 40.8326 10.0632 38.9368C6.23435 35.1079 4.08331 29.9148 4.08331 24.5C4.08331 22.0704 4.53248 19.7429 5.30831 17.5583L8.16665 20.4167H10.2083C10.2083 23.2342 14.5366 25.5208 17.3541 25.5208C20.1716 25.5208 22.9687 23.2342 22.9687 20.4167H26.0312C26.0312 23.2342 28.8283 25.5208 31.6458 25.5208C34.4633 25.5208 38.7916 23.2342 38.7916 20.4167H40.8333L43.6916 17.5583ZM33.0546 31.4825L30.1554 28.5833C29.2366 30.0533 27.0521 31.0946 24.5 31.0946C21.9479 31.0946 19.7633 30.0533 18.8446 28.5833L15.9454 31.4825C17.7829 33.6875 20.9271 35.1779 24.5 35.1779C28.0729 35.1779 31.2171 33.6875 33.0546 31.4825Z" fill="black"/>
</svg>